<?xml version="1.0" standalone="no"?>
<!DOCTYPE svg PUBLIC "-//W3C//DTD SVG 20010904//EN"
 "http://www.w3.org/TR/2001/REC-SVG-20010904/DTD/svg10.dtd">
<svg version="1.0" xmlns="http://www.w3.org/2000/svg"
 width="163.000000pt" height="112.000000pt" viewBox="0 0 163.000000 112.000000"
 preserveAspectRatio="xMidYMid meet">

<g transform="translate(0.000000,112.000000) scale(0.100000,-0.100000)"
fill="#000000" stroke="none">
<path d="M326 868 c-72 -84 -106 -192 -106 -338 0 -100 17 -186 50 -256 23
-47 86 -124 103 -124 6 0 1 10 -10 22 -114 124 -139 458 -48 639 15 30 36 64
48 77 11 12 16 22 10 22 -7 0 -28 -19 -47 -42z"/>
<path d="M718 888 c60 -65 102 -212 102 -358 0 -146 -42 -293 -102 -357 -12
-13 -17 -23 -11 -23 17 0 70 66 98 120 51 100 69 263 45 391 -18 96 -106 249
-143 249 -6 0 -1 -10 11 -22z"/>
<path d="M458 833 c26 -5 26 -7 3 -105 -14 -58 -15 -78 -6 -78 6 0 18 26 25
58 7 31 19 67 27 80 13 21 13 25 -4 38 -10 7 -29 13 -43 12 -23 -1 -24 -1 -2
-5z"/>
<path d="M535 830 c-3 -6 1 -7 9 -4 18 7 21 14 7 14 -6 0 -13 -4 -16 -10z"/>
<path d="M590 830 c12 -7 12 -16 1 -62 -7 -29 -13 -66 -14 -83 -2 -25 2 -30
23 -32 14 -1 18 0 8 3 -22 7 -22 5 2 82 21 68 15 102 -18 102 -14 0 -15 -2 -2
-10z"/>
<path d="M480 450 c0 -5 7 -10 15 -10 8 0 15 -2 15 -5 0 -2 -16 -66 -35 -142
-19 -75 -32 -139 -30 -141 10 -10 24 11 34 53 8 33 16 45 30 45 25 0 39 -19
43 -60 2 -27 8 -36 24 -38 11 -2 27 5 34 15 12 15 12 16 0 5 -27 -23 -40 -14
-40 29 0 36 -3 41 -35 55 -19 8 -35 20 -35 27 0 6 9 46 20 87 25 95 25 90 -10
90 -16 0 -30 -4 -30 -10z"/>
<path d="M575 330 c-3 -6 1 -7 9 -4 18 7 21 14 7 14 -6 0 -13 -4 -16 -10z"/>
<path d="M615 330 c3 -5 1 -10 -4 -10 -6 0 -11 -9 -11 -20 0 -25 16 -26 28 -2
10 19 5 42 -9 42 -6 0 -7 -4 -4 -10z"/>
</g>
</svg>
