<?xml version="1.0" standalone="no"?>
<!DOCTYPE svg PUBLIC "-//W3C//DTD SVG 20010904//EN"
 "http://www.w3.org/TR/2001/REC-SVG-20010904/DTD/svg10.dtd">
<svg version="1.0" xmlns="http://www.w3.org/2000/svg"
 width="254.000000pt" height="124.000000pt" viewBox="0 0 254.000000 124.000000"
 preserveAspectRatio="xMidYMid meet">

<g transform="translate(0.000000,124.000000) scale(0.100000,-0.100000)"
fill="#000000" stroke="none">
<path d="M640 1090 c0 -5 7 -10 15 -10 20 0 19 -6 -10 -130 -29 -121 -25 -155
21 -166 78 -20 156 107 108 175 -14 20 -23 22 -55 18 -44 -6 -45 -5 -25 71
l14 52 -34 0 c-19 0 -34 -4 -34 -10z m114 -176 c-2 -61 -26 -112 -59 -120 -40
-10 -48 3 -42 68 6 71 35 111 77 106 23 -3 25 -7 24 -54z"/>
<path d="M1375 945 c-31 -30 -34 -75 -5 -75 22 0 29 35 8 43 -25 8 13 37 48
37 27 0 36 -6 49 -31 24 -46 11 -81 -61 -167 -35 -42 -64 -80 -64 -84 0 -5 36
-8 80 -8 76 0 80 1 86 25 3 13 4 30 1 37 -4 8 -6 7 -6 -4 -1 -15 -11 -18 -68
-18 l-68 1 67 62 c37 34 71 73 76 87 30 86 -80 159 -143 95z"/>
<path d="M451 934 c-22 -9 -37 -26 -50 -56 -21 -48 -45 -211 -62 -423 -16
-198 -32 -236 -94 -221 -25 6 -26 8 -10 20 23 16 16 51 -10 51 -15 0 -21 -8
-23 -32 -6 -61 73 -85 120 -35 48 49 58 96 88 420 10 115 24 221 31 236 14 29
54 45 71 28 8 -8 8 -15 -2 -26 -16 -20 -6 -46 19 -46 44 0 31 71 -16 88 -22 7
-38 6 -62 -4z"/>
<path d="M1843 853 c-20 -7 -15 -23 6 -23 27 0 32 -11 21 -51 -5 -19 -14 -54
-20 -77 -11 -41 -12 -43 -29 -28 -34 31 -102 14 -147 -36 -36 -39 -54 -85 -54
-138 0 -41 5 -56 25 -75 30 -31 82 -33 117 -5 25 19 26 19 43 0 25 -28 69 -26
88 4 21 31 34 81 19 72 -6 -3 -13 -20 -17 -36 -8 -36 -38 -56 -54 -36 -8 10 1
64 39 217 27 112 50 207 50 212 0 8 -68 8 -87 0z m-24 -207 c10 -12 9 -30 -5
-92 -20 -83 -42 -120 -82 -135 -18 -7 -31 -5 -48 6 -30 19 -31 51 -4 137 32
105 92 141 139 84z"/>
<path d="M1036 685 c-20 -15 -56 -65 -56 -77 0 -5 5 -8 10 -8 6 0 10 6 10 14
0 7 11 25 25 40 19 21 33 27 58 24 27 -3 33 -7 35 -32 4 -28 -17 -120 -40
-179 -13 -33 -42 -51 -64 -39 -14 8 -14 10 0 21 20 17 20 40 1 47 -35 14 -61
-46 -33 -74 18 -18 63 -15 88 6 23 18 24 18 42 0 22 -22 76 -24 106 -2 23 16
57 72 49 80 -2 3 -14 -11 -26 -31 -24 -42 -63 -60 -93 -44 -18 10 -20 17 -14
60 10 75 44 176 62 183 20 8 54 8 54 0 0 -3 -7 -12 -15 -21 -21 -21 -14 -38
16 -38 19 0 25 6 27 28 2 16 -2 35 -9 43 -17 21 -65 17 -88 -7 l-19 -21 -21
21 c-25 25 -77 27 -105 6z"/>
<path d="M2026 669 c-30 -23 -62 -79 -46 -79 5 0 10 4 10 9 0 5 12 23 26 40
19 23 34 31 59 31 54 0 54 -16 8 -178 -17 -60 -50 -90 -80 -73 -17 9 -17 10 0
16 25 10 23 55 -3 55 -28 0 -46 -40 -31 -69 16 -28 71 -29 96 -1 l18 20 22
-20 c34 -32 81 -26 121 14 19 19 34 42 34 51 0 12 -7 7 -23 -16 -39 -57 -98
-73 -112 -29 -7 22 31 176 51 208 10 15 24 22 46 22 29 0 30 -1 15 -18 -23
-26 -22 -52 3 -52 12 0 25 10 32 25 24 52 -57 89 -97 45 l-18 -20 -22 20 c-28
26 -75 26 -109 -1z"/>
<path d="M539 353 c-51 -55 -63 -108 -33 -151 18 -26 59 -29 84 -7 15 14 18
14 30 0 21 -26 71 -12 70 19 0 6 -5 3 -11 -6 -14 -26 -39 -22 -39 5 0 12 7 47
15 77 19 71 19 79 -2 79 -10 1 -34 3 -53 7 -30 5 -39 1 -61 -23z m91 2 c17
-21 -6 -118 -36 -146 -29 -27 -68 -22 -72 10 -9 64 32 151 72 151 13 0 29 -7
36 -15z"/>
</g>
</svg>
