<?xml version="1.0" standalone="no"?>
<!DOCTYPE svg PUBLIC "-//W3C//DTD SVG 20010904//EN"
 "http://www.w3.org/TR/2001/REC-SVG-20010904/DTD/svg10.dtd">
<svg version="1.0" xmlns="http://www.w3.org/2000/svg"
 width="512.000000pt" height="512.000000pt" viewBox="0 0 512.000000 512.000000"
 preserveAspectRatio="xMidYMid meet">

<g transform="translate(0.000000,512.000000) scale(0.100000,-0.100000)"
fill="#000000" stroke="none">
<path d="M3525 5114 c-11 -2 -44 -9 -73 -15 -243 -49 -460 -279 -616 -650
-122 -293 -237 -731 -776 -2954 -190 -782 -198 -809 -271 -899 -92 -111 -240
-100 -356 27 -60 66 -99 132 -138 235 -54 139 -129 196 -256 197 -67 0 -81 -3
-124 -30 -66 -41 -111 -101 -126 -171 -11 -50 -10 -63 9 -132 78 -272 289
-538 510 -644 287 -137 601 -88 818 127 112 111 189 230 235 363 10 29 124
489 253 1020 553 2277 609 2482 741 2750 65 131 131 219 186 247 32 17 86 19
124 5 73 -28 135 -152 159 -318 20 -135 122 -222 258 -222 80 0 130 23 185 83
60 65 78 131 63 233 -29 213 -118 416 -241 549 -64 69 -178 141 -272 171 -79
25 -239 41 -292 28z"/>
</g>
</svg>
