<?xml version="1.0" standalone="no"?>
<!DOCTYPE svg PUBLIC "-//W3C//DTD SVG 20010904//EN"
 "http://www.w3.org/TR/2001/REC-SVG-20010904/DTD/svg10.dtd">
<svg version="1.0" xmlns="http://www.w3.org/2000/svg"
 width="121.000000pt" height="96.000000pt" viewBox="0 0 121.000000 96.000000"
 preserveAspectRatio="xMidYMid meet">

<g transform="translate(0.000000,96.000000) scale(0.100000,-0.100000)"
fill="#000000" stroke="none">
<path d="M510 830 c-8 -5 -25 -10 -37 -10 -13 0 -23 -4 -23 -10 0 -5 13 -7 30
-3 l30 6 0 -122 0 -121 -32 0 c-17 0 -29 -3 -25 -6 9 -9 137 -10 137 -1 0 4
-11 7 -25 7 l-25 0 0 135 c0 74 -3 135 -7 135 -5 0 -15 -5 -23 -10z"/>
<path d="M236 788 c-72 -84 -106 -192 -106 -338 0 -105 17 -184 55 -260 28
-54 81 -120 98 -120 6 0 1 10 -10 22 -114 124 -139 458 -48 639 15 30 36 64
48 77 11 12 16 22 10 22 -7 0 -28 -19 -47 -42z"/>
<path d="M760 827 c0 -4 14 -26 30 -49 55 -76 75 -163 75 -328 0 -126 -3 -155
-24 -218 -13 -40 -37 -91 -53 -113 -40 -55 -29 -60 16 -8 72 84 106 193 106
336 0 114 -13 180 -52 259 -25 53 -98 142 -98 121z"/>
<path d="M458 453 c34 -2 90 -2 125 0 34 2 6 3 -63 3 -69 0 -97 -1 -62 -3z"/>
<path d="M444 238 l-19 -23 25 20 c14 11 27 21 29 22 2 2 0 3 -6 3 -5 0 -18
-10 -29 -22z"/>
<path d="M510 245 c9 -11 10 -26 0 -67 -16 -68 -35 -98 -62 -98 -17 0 -19 3
-10 12 17 17 15 38 -3 38 -20 0 -20 -49 1 -57 8 -3 26 0 40 7 19 11 27 11 36
2 14 -14 54 -16 62 -3 3 4 -5 6 -18 4 -13 -3 -27 0 -31 7 -11 18 16 131 37
152 10 10 14 18 10 18 -4 0 -13 -5 -20 -12 -9 -9 -15 -9 -24 0 -17 17 -33 15
-18 -3z"/>
<path d="M600 251 c10 -7 11 -11 3 -11 -7 0 -13 -9 -13 -21 0 -12 5 -19 13
-16 17 5 15 49 -3 54 -13 4 -13 3 0 -6z"/>
<path d="M596 113 c-6 -14 -5 -15 5 -6 7 7 10 15 7 18 -3 3 -9 -2 -12 -12z"/>
</g>
</svg>
