<?xml version="1.0" standalone="no"?>
<!DOCTYPE svg PUBLIC "-//W3C//DTD SVG 20010904//EN"
 "http://www.w3.org/TR/2001/REC-SVG-20010904/DTD/svg10.dtd">
<svg version="1.0" xmlns="http://www.w3.org/2000/svg"
 width="86.000000pt" height="106.000000pt" viewBox="0 0 86.000000 106.000000"
 preserveAspectRatio="xMidYMid meet">

<g transform="translate(0.000000,106.000000) scale(0.100000,-0.100000)"
fill="#000000" stroke="none">
<path d="M320 833 c-14 -7 -33 -13 -42 -13 -10 0 -18 -5 -18 -11 0 -7 10 -9
25 -5 20 5 25 3 25 -11 0 -10 3 -47 5 -83 3 -36 3 -82 -1 -102 -5 -32 -10 -38
-30 -38 -13 0 -24 -4 -24 -10 0 -6 30 -10 70 -10 40 0 70 4 70 10 0 6 -11 10
-25 10 l-24 0 -3 138 -3 138 -25 -13z"/>
<path d="M240 480 c0 -6 42 -10 105 -10 63 0 105 4 105 10 0 6 -42 10 -105 10
-63 0 -105 -4 -105 -10z"/>
<path d="M280 283 c-17 -6 -49 -43 -50 -57 0 -5 9 3 21 18 12 16 30 26 46 26
25 0 26 -2 20 -49 -8 -71 -32 -121 -57 -121 -18 0 -19 3 -8 20 14 22 6 35 -17
26 -10 -3 -15 -15 -13 -28 4 -27 41 -36 64 -17 11 9 18 9 26 1 19 -19 63 -14
86 11 30 32 28 42 -3 12 -51 -52 -75 -24 -55 63 14 66 25 82 52 82 17 0 18 -2
8 -15 -15 -18 1 -42 19 -31 24 15 4 66 -25 66 -7 0 -20 -7 -28 -16 -14 -14
-18 -14 -38 0 -24 17 -25 17 -48 9z"/>
</g>
</svg>
