<?xml version="1.0" standalone="no"?>
<!DOCTYPE svg PUBLIC "-//W3C//DTD SVG 20010904//EN"
 "http://www.w3.org/TR/2001/REC-SVG-20010904/DTD/svg10.dtd">
<svg version="1.0" xmlns="http://www.w3.org/2000/svg"
 width="256.000000pt" height="256.000000pt" viewBox="0 0 256.000000 256.000000"
 preserveAspectRatio="xMidYMid meet">

<g transform="translate(0.000000,256.000000) scale(0.100000,-0.100000)"
fill="#000000" stroke="none">
<path d="M240 2227 c-49 -16 -133 -102 -148 -153 -17 -59 -17 -1209 0 -1268
16 -55 99 -138 154 -154 31 -9 204 -12 662 -12 l620 0 6 -34 c13 -67 74 -171
134 -228 297 -283 778 -100 809 307 14 188 -94 380 -261 462 l-56 27 0 431 c0
497 0 496 -80 568 -26 24 -66 49 -88 55 -54 16 -1700 15 -1752 -1z m1735 -172
l25 -24 0 -414 0 -414 -52 -7 c-29 -3 -62 -9 -74 -12 -16 -4 -53 22 -168 120
-82 70 -158 129 -171 132 -33 8 -50 -3 -206 -137 -77 -66 -145 -119 -151 -117
-5 2 -80 91 -167 198 -86 107 -168 201 -182 209 -15 8 -36 11 -50 8 -17 -4
-112 -105 -273 -286 -136 -154 -251 -283 -256 -286 -6 -4 -10 180 -10 500 l0
506 25 24 24 25 831 0 831 0 24 -25z m-932 -960 l233 -290 -484 -3 c-266 -1
-489 1 -497 5 -9 6 61 91 243 296 141 158 260 286 264 285 4 -2 112 -133 241
-293z m570 79 l87 -76 -52 -57 c-52 -57 -103 -150 -114 -208 -5 -28 -11 -33
-33 -33 -20 1 -38 17 -82 73 -31 40 -75 95 -98 124 l-41 51 117 101 c65 56
120 101 123 101 3 0 44 -34 93 -76z m506 -161 l43 -16 -218 -219 -219 -219
-19 42 c-12 29 -18 66 -18 115 0 226 215 374 431 297z m198 -274 c12 -123 -55
-240 -171 -299 -58 -29 -77 -34 -139 -35 -47 0 -89 6 -121 19 l-48 19 218 219
219 219 19 -42 c10 -23 21 -68 23 -100z"/>
<path d="M1215 1906 c-101 -44 -125 -178 -46 -257 65 -65 157 -65 222 0 124
124 -15 327 -176 257z"/>
</g>
</svg>
