<?xml version="1.0" standalone="no"?>
<!DOCTYPE svg PUBLIC "-//W3C//DTD SVG 20010904//EN"
 "http://www.w3.org/TR/2001/REC-SVG-20010904/DTD/svg10.dtd">
<svg version="1.0" xmlns="http://www.w3.org/2000/svg"
 width="124.000000pt" height="97.000000pt" viewBox="0 0 124.000000 97.000000"
 preserveAspectRatio="xMidYMid meet">

<g transform="translate(0.000000,97.000000) scale(0.100000,-0.100000)"
fill="#000000" stroke="none">
<path d="M460 454 c-74 -151 -137 -277 -140 -279 -4 -2 -31 50 -60 115 -29 66
-55 120 -58 120 -3 0 -23 -12 -44 -26 -42 -29 -54 -56 -13 -30 24 16 26 16 34
-6 39 -97 111 -243 120 -243 6 0 77 136 158 303 l146 302 169 0 c105 0 168 4
168 10 0 6 -64 10 -173 10 l-173 0 -134 -276z"/>
<path d="M260 600 c12 -7 13 -18 2 -66 -6 -32 -10 -59 -8 -61 2 -2 13 23 23
56 20 62 16 81 -16 81 -14 0 -14 -2 -1 -10z"/>
<path d="M344 603 c15 -4 17 -11 11 -41 -12 -62 -11 -85 5 -89 12 -4 12 -3 2
5 -11 8 -11 17 1 53 17 49 8 80 -21 78 -15 -1 -14 -2 2 -6z"/>
<path d="M694 520 c-24 -9 -64 -61 -64 -82 0 -7 8 1 18 17 27 43 47 57 79 53
27 -3 28 -5 27 -53 -1 -113 -54 -213 -100 -187 -15 8 -15 10 0 15 18 7 22 42
6 52 -29 18 -54 -47 -28 -73 17 -17 63 -15 78 3 16 19 27 19 46 0 26 -26 79
-19 113 16 17 17 31 38 31 47 0 10 -10 3 -25 -19 -28 -43 -70 -58 -94 -35 -13
14 -13 24 -3 73 28 136 43 163 89 163 25 0 25 -1 10 -18 -23 -25 -22 -52 3
-52 31 0 45 36 25 66 -19 30 -54 31 -83 3 l-22 -20 -27 20 c-27 22 -45 25 -79
11z"/>
</g>
</svg>
