<?xml version="1.0" standalone="no"?>
<!DOCTYPE svg PUBLIC "-//W3C//DTD SVG 20010904//EN"
 "http://www.w3.org/TR/2001/REC-SVG-20010904/DTD/svg10.dtd">
<svg version="1.0" xmlns="http://www.w3.org/2000/svg"
 width="144.000000pt" height="98.000000pt" viewBox="0 0 144.000000 98.000000"
 preserveAspectRatio="xMidYMid meet">

<g transform="translate(0.000000,98.000000) scale(0.100000,-0.100000)"
fill="#000000" stroke="none">
<path d="M516 460 c-71 -149 -132 -270 -136 -270 -3 0 -30 52 -60 115 -29 63
-56 115 -59 115 -11 0 -82 -62 -77 -67 2 -2 14 2 26 9 14 8 24 9 27 3 43 -103
114 -241 125 -243 10 -2 24 17 40 55 14 32 79 167 143 300 l118 243 181 3 181
2 -190 2 -190 2 -129 -269z"/>
<path d="M742 524 c-23 -16 -58 -74 -45 -74 5 1 17 15 28 33 25 39 67 56 90
37 20 -16 16 -52 -15 -153 -21 -68 -46 -95 -77 -83 -14 6 -14 9 2 26 17 19 15
50 -4 50 -13 0 -41 -29 -41 -41 0 -46 54 -64 98 -33 21 15 25 15 41 0 22 -20
70 -21 99 0 24 17 58 74 44 74 -5 0 -14 -11 -20 -24 -18 -40 -58 -61 -87 -48
-30 14 -31 21 -4 128 23 89 49 124 85 110 14 -5 14 -7 -1 -22 -20 -20 -15 -38
12 -42 26 -4 39 28 23 58 -13 25 -66 27 -92 3 -17 -15 -19 -15 -36 0 -23 21
-71 22 -100 1z"/>
</g>
</svg>
