<?xml version="1.0" standalone="no"?>
<!DOCTYPE svg PUBLIC "-//W3C//DTD SVG 20010904//EN"
 "http://www.w3.org/TR/2001/REC-SVG-20010904/DTD/svg10.dtd">
<svg version="1.0" xmlns="http://www.w3.org/2000/svg"
 width="415.000000pt" height="178.000000pt" viewBox="0 0 415.000000 178.000000"
 preserveAspectRatio="xMidYMid meet">

<g transform="translate(0.000000,178.000000) scale(0.100000,-0.100000)"
fill="#000000" stroke="none">
<path d="M1442 1373 c-22 -9 -62 -103 -44 -103 6 0 13 12 17 28 12 51 56 80
69 47 3 -9 -8 -70 -24 -138 -35 -144 -36 -147 -10 -147 20 0 19 -2 55 140 22
85 40 117 78 140 91 56 121 -3 72 -142 -29 -84 -31 -101 -9 -122 24 -25 67
-20 96 12 29 29 53 82 38 82 -5 0 -11 -9 -15 -19 -16 -51 -72 -90 -89 -62 -3
5 8 50 24 100 37 111 37 135 4 168 -21 21 -32 25 -64 20 -22 -3 -52 -15 -69
-26 l-30 -21 -25 25 c-24 24 -46 29 -74 18z"/>
<path d="M330 1286 c0 -7 88 -134 194 -281 190 -261 194 -269 178 -289 -22
-28 -263 -313 -324 -384 -27 -30 -48 -59 -48 -64 0 -4 200 -8 444 -8 l445 0
34 107 c19 60 38 118 41 131 11 34 -19 28 -34 -8 -14 -34 -83 -101 -130 -125
-66 -34 -172 -45 -446 -45 -145 0 -264 3 -264 8 1 4 86 108 190 231 122 143
187 228 181 235 -20 26 -328 452 -335 465 -7 11 38 12 270 9 251 -4 286 -7
345 -26 82 -27 143 -70 177 -127 15 -25 33 -45 40 -45 6 0 12 2 12 5 0 4 -60
171 -75 208 -7 16 -38 17 -451 17 -367 0 -444 -2 -444 -14z"/>
<path d="M2950 962 c-35 -19 -100 -102 -100 -128 0 -24 27 -15 34 10 10 40 55
85 96 97 33 10 43 9 65 -5 33 -22 32 -42 -10 -206 -30 -116 -39 -139 -66 -163
-24 -22 -37 -27 -58 -22 -36 9 -36 9 -7 38 30 30 33 49 10 72 -31 31 -83 -5
-84 -58 0 -42 16 -64 55 -77 43 -14 71 -6 111 32 l31 29 16 -25 c37 -56 131
-55 198 1 46 39 84 123 55 123 -8 0 -18 -10 -21 -22 -12 -40 -56 -90 -93 -105
-43 -18 -87 -3 -96 31 -5 22 43 242 66 299 20 52 73 79 108 57 13 -8 11 -12
-8 -26 -17 -12 -22 -24 -20 -47 3 -28 7 -32 34 -35 39 -4 58 18 58 65 0 26 -7
42 -28 59 -39 35 -86 32 -131 -7 l-36 -32 -29 28 c-38 36 -101 44 -150 17z"/>
<path d="M3542 838 c-17 -17 -15 -47 3 -54 21 -9 47 15 43 40 -4 24 -28 32
-46 14z"/>
<path d="M3458 670 c-26 -20 -55 -76 -45 -86 3 -3 15 12 26 34 20 40 51 60 72
46 14 -8 9 -27 -34 -145 -30 -82 -34 -99 -24 -120 14 -28 69 -38 93 -18 20 16
57 89 50 97 -7 6 -5 9 -31 -43 -15 -30 -27 -41 -47 -43 -37 -4 -37 12 7 129
41 110 43 132 13 153 -30 21 -50 20 -80 -4z"/>
<path d="M1522 658 c-17 -17 -15 -47 3 -54 21 -9 47 15 43 40 -4 24 -28 32
-46 14z"/>
<path d="M2295 639 c-50 -44 -68 -114 -63 -238 6 -153 50 -221 143 -221 49 0
88 25 117 74 21 37 23 53 23 166 0 102 -4 134 -19 168 -38 84 -135 109 -201
51z m135 -9 c29 -29 32 -52 28 -223 -3 -149 -4 -157 -27 -181 -33 -35 -79 -35
-112 0 -23 25 -24 29 -24 199 0 170 1 174 24 199 30 32 82 35 111 6z"/>
<path d="M1449 497 c-17 -13 -59 -76 -59 -89 0 -5 5 -8 10 -8 6 0 10 7 10 15
0 26 55 79 75 72 22 -9 18 -33 -26 -153 -29 -79 -32 -95 -21 -118 17 -39 71
-37 105 4 27 32 43 68 33 77 -3 3 -10 -7 -16 -23 -16 -41 -40 -64 -67 -64 -30
0 -29 10 12 121 19 52 35 106 35 121 0 49 -52 75 -91 45z"/>
<path d="M1670 440 c0 -6 85 -10 235 -10 150 0 235 4 235 10 0 6 -85 10 -235
10 -150 0 -235 -4 -235 -10z"/>
<path d="M1670 300 c0 -6 85 -10 235 -10 150 0 235 4 235 10 0 6 -85 10 -235
10 -150 0 -235 -4 -235 -10z"/>
</g>
</svg>
