<?xml version="1.0" standalone="no"?>
<!DOCTYPE svg PUBLIC "-//W3C//DTD SVG 20010904//EN"
 "http://www.w3.org/TR/2001/REC-SVG-20010904/DTD/svg10.dtd">
<svg version="1.0" xmlns="http://www.w3.org/2000/svg"
 width="687.000000pt" height="614.000000pt" viewBox="0 0 687.000000 614.000000"
 preserveAspectRatio="xMidYMid meet">

<g transform="translate(0.000000,614.000000) scale(0.100000,-0.100000)"
fill="#000000" stroke="none">
<path d="M4720 5925 c-349 -52 -650 -97 -669 -100 -48 -9 -81 -49 -81 -98 0
-38 7 -47 170 -211 l169 -171 -348 -350 c-350 -352 -362 -365 -353 -425 4 -26
323 -357 396 -411 77 -57 60 -69 456 326 l355 355 160 -160 c88 -88 175 -167
193 -176 40 -19 92 -6 115 30 10 14 52 271 117 714 96 659 100 693 85 722 -18
34 -50 50 -98 49 -18 0 -318 -43 -667 -94z m565 -137 c-2 -13 -34 -225 -70
-473 -36 -247 -68 -465 -71 -483 l-6 -33 -133 130 c-133 131 -161 149 -212
136 -19 -4 -147 -125 -376 -353 l-347 -347 -115 115 -115 115 350 350 c353
354 356 358 350 420 -1 11 -63 82 -138 158 -75 75 -135 137 -132 138 64 10
990 147 1003 148 13 1 16 -5 12 -21z"/>
<path d="M3085 4563 c-547 -25 -993 -143 -1273 -336 -128 -88 -208 -191 -237
-305 -16 -63 -16 -64 140 -1530 86 -807 162 -1495 170 -1529 23 -102 62 -170
150 -259 87 -88 169 -141 305 -197 471 -195 1349 -195 1818 -1 138 57 220 110
307 198 88 89 127 157 150 259 8 34 84 718 169 1520 141 1322 154 1462 142
1492 -40 94 -163 63 -181 -46 -11 -65 -36 -108 -101 -169 -433 -411 -1885
-486 -2587 -134 -240 120 -337 248 -287 379 92 242 751 464 1378 465 124 0
165 14 188 64 15 30 15 39 4 66 -7 18 -27 41 -44 51 -31 19 -48 20 -211 12z
m-1132 -1199 c179 -91 376 -154 627 -199 246 -44 330 -50 670 -50 207 0 363 5
430 13 261 33 540 97 702 161 85 34 234 108 286 142 32 21 32 21 32 1 0 -18
-250 -2370 -265 -2491 -16 -131 -113 -241 -288 -325 -231 -113 -481 -156 -897
-156 -416 0 -666 43 -897 156 -175 84 -272 194 -288 325 -14 109 -265 2477
-265 2493 0 17 2 16 33 -3 17 -12 71 -42 120 -67z"/>
<path d="M2424 2546 c-19 -19 -34 -43 -34 -54 0 -47 192 -1440 202 -1465 12
-32 54 -57 93 -57 38 0 85 50 85 91 0 78 -192 1453 -206 1474 -16 25 -55 45
-85 45 -12 0 -36 -15 -55 -34z"/>
<path d="M3203 2560 c-21 -12 -36 -32 -43 -57 -8 -27 -10 -252 -8 -756 l3
-719 33 -29 c42 -38 82 -38 124 0 l33 29 3 731 c3 804 5 774 -58 806 -38 19
-48 19 -87 -5z"/>
<path d="M3970 2565 c-14 -7 -31 -24 -38 -37 -12 -23 -202 -1404 -202 -1467 0
-41 47 -91 85 -91 39 0 81 25 93 57 10 25 202 1418 202 1465 0 28 -63 88 -91
88 -13 -1 -35 -7 -49 -15z"/>
</g>
</svg>
