<?xml version="1.0" standalone="no"?>
<!DOCTYPE svg PUBLIC "-//W3C//DTD SVG 20010904//EN"
 "http://www.w3.org/TR/2001/REC-SVG-20010904/DTD/svg10.dtd">
<svg version="1.0" xmlns="http://www.w3.org/2000/svg"
 width="512.000000pt" height="512.000000pt" viewBox="0 0 512.000000 512.000000"
 preserveAspectRatio="xMidYMid meet">

<g transform="translate(0.000000,512.000000) scale(0.100000,-0.100000)"
fill="#000000" stroke="none">
<path d="M3930 4618 c-33 -17 -51 -35 -67 -68 -21 -41 -23 -58 -23 -217 l0
-173 -173 0 c-159 0 -176 -2 -217 -22 -48 -25 -90 -89 -90 -138 0 -49 42 -113
90 -137 41 -21 58 -23 217 -23 l173 0 0 -173 c0 -159 2 -176 23 -217 24 -48
88 -90 137 -90 49 0 113 42 138 90 20 41 22 58 22 217 l0 173 173 0 c159 0
176 2 217 23 48 24 90 88 90 137 0 49 -42 113 -90 138 -41 20 -58 22 -217 22
l-173 0 0 173 c0 159 -2 176 -22 217 -25 48 -89 90 -138 90 -14 0 -46 -10 -70
-22z"/>
<path d="M1304 4465 c-92 -16 -133 -30 -218 -71 -166 -82 -309 -232 -379 -400
-66 -157 -62 -59 -62 -1434 0 -1372 -4 -1274 60 -1433 71 -173 249 -351 422
-422 159 -64 61 -60 1433 -60 1179 0 1248 1 1310 18 154 44 270 110 373 214
101 101 164 207 210 358 21 68 21 88 24 710 l4 640 -23 45 c-25 48 -88 90
-138 90 -49 0 -113 -42 -137 -90 l-23 -44 0 -540 0 -541 -357 357 c-306 304
-364 358 -400 369 -55 16 -108 1 -161 -44 -20 -18 -143 -124 -272 -237 -129
-113 -242 -211 -251 -218 -15 -11 -75 48 -479 472 -466 488 -496 516 -561 516
-56 0 -101 -38 -406 -343 l-313 -312 0 840 c0 875 0 877 42 975 38 87 149 198
237 237 98 42 111 43 741 43 l606 0 44 23 c48 24 90 88 90 137 0 49 -42 113
-90 138 l-44 22 -606 -1 c-449 -1 -623 -4 -676 -14z m1027 -2817 l652 -683
-789 -3 c-557 -2 -807 0 -849 8 -176 34 -336 190 -374 368 -6 29 -11 103 -11
165 l0 112 357 357 c197 197 359 358 360 358 1 0 296 -307 654 -682z m1379
-143 l355 -355 -49 -49 c-106 -107 -211 -141 -436 -141 l-155 1 -248 260
c-137 143 -247 264 -245 268 3 9 410 369 418 370 3 1 165 -159 360 -354z"/>
</g>
</svg>
